<svg width="128" height="128" viewBox="0 0 128 128" fill="none" xmlns="http://www.w3.org/2000/svg">
<rect x="0.5" y="0.5" width="127" height="127" fill="white"/>
<rect x="0.5" y="0.5" width="127" height="127" stroke="#DADADA"/>
<path d="M86.3376 30L69.7405 40.2822L63.438 44.1942L63.452 30.5907L59.2289 30.5626L55.0057 30.5323V49.4284L52.6166 50.9105L41.6726 57.7134L31 64.4037L55.0057 79.392V99H59.1766H63.3454L63.3615 86.0672C63.3624 85.3055 63.3645 85.3441 63.3656 84.611L86.0379 98.7685L88.1354 94.8261L90.2309 90.8816L73.656 80.5583L63.3897 74.1752C63.391 73.9574 63.3926 72.5139 63.3937 72.468C63.4012 72.1616 63.4132 63.4968 63.4239 54.6387L90.5909 37.8501L88.4632 33.9251L86.3376 30ZM55.0057 59.8404V64.7672V68.9649L47.6413 64.3929L55.0057 59.8404Z" fill="url(#paint0_linear_205_86)"/>
<defs>
<linearGradient id="paint0_linear_205_86" x1="60.7955" y1="30" x2="60.7955" y2="99" gradientUnits="userSpaceOnUse">
<stop stop-color="#77B6DC"/>
<stop offset="1" stop-color="#3A8AC7"/>
</linearGradient>
</defs>
</svg>
